# xmcd CD database file
#
# Track frame offsets:
#	150
#	19412
#	44665
#	61192
#	76985
#
# Disc length: 1261 seconds
#
# Revision: 0
# Processed by: cddbd v1.5PL3 Copyright (c) Steve Scherf et al.
# Submitted via: CDex 1.51
#
DISCID=3b04eb05
DTITLE=ぴよぴよ - ぴよぴよ
DYEAR=1900
DGENRE=Pop
TTITLE0=虹と太陽の丘
TTITLE1=かくれんぼ
TTITLE2=幻想記念日
TTITLE3=錆びたオルゴール
TTITLE4=アスファルトの道
EXTD=
EXTT0=
EXTT1=
EXTT2=
EXTT3=
EXTT4=
PLAYORDER=
